<svg width="88" height="93" viewBox="0 0 88 93" fill="none" xmlns="http://www.w3.org/2000/svg">
<g clip-path="url(#clip0_8_287)">
<path d="M88 46.5C88 20.8189 68.3004 0 44 0C19.6996 0 0 20.8186 0 46.5C0 69.7093 16.0903 88.9469 37.125 92.4351V59.9414H25.9531V46.5H37.125V36.2555C37.125 24.6014 43.6941 18.1641 53.7443 18.1641C58.5585 18.1641 63.5938 19.0723 63.5938 19.0723V30.5156H58.0456C52.5793 30.5156 50.875 34.1001 50.875 37.7776V46.5H63.0781L61.1273 59.9414H50.875V92.4351C71.9098 88.9469 88 69.7097 88 46.5Z" fill="#1877F2"/>
<path d="M61.1273 59.7398L63.0781 46.2984H50.875V37.576C50.875 33.8981 52.5797 30.314 58.0456 30.314H63.5938V18.8706C63.5938 18.8706 58.5585 17.9624 53.7443 17.9624C43.6941 17.9624 37.125 24.3998 37.125 36.0538V46.2984H25.9531V59.7398H37.125V92.2335C39.3993 92.6101 41.6979 92.799 44 92.7984C46.3021 92.7991 48.6007 92.6102 50.875 92.2335V59.7398H61.1273Z" fill="white"/>
</g>
<defs>
<clipPath id="clip0_8_287">
<rect width="88" height="93" fill="white"/>
</clipPath>
</defs>
</svg>
