<svg width="88" height="93" viewBox="0 0 88 93" fill="none" xmlns="http://www.w3.org/2000/svg">
<g clip-path="url(#clip0_8_329)">
<path d="M20.0006 92.5422V44.8809L9.45629 31.3583L0.000946045 23.8542V84.1313C0.000946045 88.7851 2.69074 92.5422 6.00098 92.5422H20.0006Z" fill="#4285F4"/>
<path d="M67.9995 92.5422H81.9991C85.3193 92.5422 87.9991 88.7711 87.9991 84.1313V23.8547L77.2895 32.4498L67.9995 44.8809V92.5422Z" fill="#34A853"/>
<path d="M17.842 32.4464L16.4073 13.8237L17.842 -4L41.8415 21.2324L65.8409 -4L67.4459 12.8614L65.8409 32.4464L41.8415 57.6788L17.842 32.4464Z" fill="#EA4335"/>
<path d="M67.9995 8.43457V44.8809L87.9991 23.8543V12.6398C87.9991 2.23875 79.5293 -3.6906 73.5997 2.54714L67.9995 8.43457Z" fill="#FBBC04"/>
<path d="M0.000976562 23.8543L9.1992 33.5254L20.0006 44.881V8.43464L14.4004 2.54721C8.46049 -3.69102 0.000976562 2.23882 0.000976562 12.6394V23.8538V23.8543Z" fill="#C5221F"/>
</g>
<defs>
<clipPath id="clip0_8_329">
<rect width="88" height="93" fill="white"/>
</clipPath>
</defs>
</svg>
