<svg width="88" height="93" viewBox="0 0 88 93" fill="none" xmlns="http://www.w3.org/2000/svg">
<path d="M44 8.37872C55.7483 8.37872 57.1398 8.42595 61.7794 8.64936C66.0694 8.85643 68.3994 9.61387 69.95 10.2507C72.0036 11.0942 73.4693 12.102 75.009 13.7291C76.549 15.3563 77.5022 16.9053 78.3004 19.0755C78.903 20.7143 79.6197 23.1766 79.8157 27.71C80.0271 32.6136 80.0718 34.0841 80.0718 46.5C80.0718 58.9162 80.0271 60.3868 79.8157 65.29C79.6197 69.8237 78.903 72.2857 78.3004 73.9245C77.5022 76.0947 76.5487 77.6441 75.009 79.2712C73.4693 80.8984 72.0036 81.9061 69.95 82.7493C68.3994 83.3861 66.0694 84.1439 61.7794 84.3506C57.1405 84.5744 55.749 84.6216 44 84.6216C32.2506 84.6216 30.8591 84.5744 26.2202 84.3506C21.9302 84.1436 19.6006 83.3861 18.05 82.7493C15.9964 81.9061 14.5303 80.8984 12.9907 79.2712C11.451 77.6437 10.4974 76.0947 9.69959 73.9245C9.097 72.2861 8.37994 69.8237 8.18434 65.29C7.97259 60.3868 7.92791 58.9162 7.92791 46.5C7.92791 34.0841 7.97259 32.6136 8.18434 27.7104C8.38028 23.1766 9.097 20.7143 9.69959 19.0755C10.4974 16.9053 11.451 15.3563 12.9907 13.7291C14.5307 12.1016 15.9964 11.0942 18.05 10.2507C19.6003 9.61387 21.9302 8.85643 26.2202 8.64936C30.8598 8.42595 32.2513 8.37872 44 8.37872ZM44 0C32.0502 0 30.5518 0.0534023 25.8589 0.279727C21.1753 0.505687 17.9767 1.29183 15.1783 2.44125C12.2846 3.62954 9.83091 5.21962 7.38478 7.80473C4.93866 10.3898 3.43441 12.9829 2.31 16.0407C1.22203 18.9985 0.4785 22.3789 0.264687 27.3282C0.0505312 32.2877 0 33.8713 0 46.5C0 59.1287 0.0505312 60.7123 0.264687 65.6718C0.4785 70.6215 1.22203 74.0018 2.31 76.9593C3.43406 80.0171 4.93866 82.6105 7.38478 85.1956C9.83091 87.7807 12.2846 89.3705 15.1783 90.5587C17.9771 91.7085 21.1753 92.4943 25.8586 92.7203C30.5518 92.9466 32.0502 93 44 93C55.9498 93 57.4482 92.9466 62.1411 92.7203C66.8243 92.4943 70.0229 91.7085 72.8214 90.5587C75.7151 89.3708 78.1688 87.7807 80.6149 85.1956C83.061 82.6105 84.5656 80.0174 85.69 76.9593C86.7776 74.0015 87.5215 70.6215 87.7353 65.6722C87.9495 60.7123 88 59.1287 88 46.5C88 33.8713 87.9495 32.2877 87.7353 27.3282C87.5215 22.3789 86.7776 18.9985 85.69 16.041C84.5656 12.9829 83.061 10.3898 80.6149 7.80473C78.1688 5.21962 75.7151 3.62918 72.8217 2.44125C70.0229 1.29183 66.8243 0.505687 62.1411 0.279727C57.4482 0.0534023 55.9498 0 44 0ZM44 22.6215C31.5212 22.6215 21.4053 33.3129 21.4053 46.5C21.4053 59.6878 31.5212 70.3785 44 70.3785C56.4785 70.3785 66.5947 59.6878 66.5947 46.5C66.5947 33.3125 56.4785 22.6215 44 22.6215ZM44 62.0001C35.8999 62.0001 29.3332 55.0604 29.3332 46.5C29.3332 37.9396 35.8999 30.9999 44 30.9999C52.1001 30.9999 58.6668 37.9396 58.6668 46.5C58.6668 55.0604 52.1001 62.0001 44 62.0001ZM72.7671 21.6781C72.7671 24.7602 70.4034 27.2581 67.4871 27.2581C64.571 27.2581 62.2071 24.7602 62.2071 21.6781C62.2071 18.5964 64.571 16.0981 67.4871 16.0981C70.4034 16.0981 72.7671 18.5964 72.7671 21.6781Z" fill="#0A0A08"/>
</svg>
