<svg width="88" height="93" viewBox="0 0 88 93" fill="none" xmlns="http://www.w3.org/2000/svg">
<g clip-path="url(#clip0_40_5)">
<path d="M1.87833 45.9434C1.87627 53.7572 3.82325 61.3869 7.5254 68.1117L1.52427 91.0885L23.9475 84.9231C30.1495 88.4636 37.0984 90.3188 44.1598 90.3192H44.1784C67.4896 90.3192 86.4654 70.4277 86.4754 45.9784C86.4798 34.131 82.084 22.9905 74.0974 14.6089C66.1122 6.22812 55.4921 1.6102 44.1767 1.6048C20.8628 1.6048 1.8883 21.4953 1.87867 45.9434" fill="url(#paint0_linear_40_5)"/>
<path d="M0.368274 45.929C0.365868 54.024 2.38263 61.9265 6.21678 68.8921L0.000465393 92.6925L23.2278 86.3062C29.6276 89.9652 36.8333 91.8944 44.1654 91.8973H44.1843C68.3318 91.8973 87.9893 71.2903 87.9996 45.9658C88.0037 33.6927 83.4497 22.1517 75.1778 13.4699C66.9049 4.78914 55.905 0.00504651 44.1843 0C20.0326 0 0.377899 20.6042 0.368274 45.929ZM14.2006 67.6925L13.3334 66.2488C9.68759 60.1699 7.76329 53.1452 7.76604 45.9319C7.77395 24.8825 24.1102 7.75721 44.198 7.75721C53.926 7.76153 63.0683 11.7382 69.9446 18.9533C76.8206 26.169 80.6042 35.761 80.6018 45.9629C80.5929 67.0123 64.2563 84.1398 44.1843 84.1398H44.1698C37.6342 84.1362 31.2243 82.2956 25.6343 78.8175L24.304 77.9902L10.5205 81.7798L14.2006 67.6921V67.6925Z" fill="url(#paint1_linear_40_5)"/>
<path d="M33.2332 26.7278C32.413 24.8162 31.5498 24.7777 30.7699 24.7441C30.1312 24.7153 29.4011 24.7175 28.6717 24.7175C27.9415 24.7175 26.7553 25.0055 25.7526 26.1536C24.7488 27.3027 21.9205 30.0797 21.9205 35.7279C21.9205 41.3764 25.8437 46.8349 26.3906 47.6016C26.9381 48.3669 33.9643 60.3285 45.0921 64.9302C54.3402 68.7544 56.2223 67.9938 58.2294 67.802C60.2369 67.611 64.7069 65.0257 65.6189 62.345C66.5316 59.6646 66.5316 57.3669 66.2579 56.8868C65.9843 56.4085 65.2542 56.1212 64.1594 55.5473C63.0642 54.9731 57.6818 52.1957 56.6784 51.8125C55.6747 51.4297 54.9449 51.2387 54.2148 52.3882C53.4847 53.5359 51.3881 56.1212 50.7491 56.8868C50.1108 57.6542 49.4718 57.7498 48.3773 57.1755C47.2817 56.5995 43.7559 55.3887 39.5729 51.478C36.3183 48.435 34.1211 44.6771 33.4824 43.5276C32.8437 42.3799 33.414 41.7577 33.9629 41.1857C34.4548 40.6713 35.0581 39.8451 35.6061 39.175C36.1519 38.5045 36.3341 38.0262 36.6992 37.2606C37.0646 36.4942 36.8817 35.8238 36.6084 35.2495C36.3341 34.6753 34.2067 28.9976 33.2332 26.7278Z" fill="white"/>
</g>
<defs>
<linearGradient id="paint0_linear_40_5" x1="4249.08" y1="8949.97" x2="4249.08" y2="1.6048" gradientUnits="userSpaceOnUse">
<stop stop-color="#1FAF38"/>
<stop offset="1" stop-color="#60D669"/>
</linearGradient>
<linearGradient id="paint1_linear_40_5" x1="4399.96" y1="9269.25" x2="4399.96" y2="0" gradientUnits="userSpaceOnUse">
<stop stop-color="#F9F9F9"/>
<stop offset="1" stop-color="white"/>
</linearGradient>
<clipPath id="clip0_40_5">
<rect width="88" height="93" fill="white"/>
</clipPath>
</defs>
</svg>
