<svg width="88" height="93" viewBox="0 0 88 93" fill="none" xmlns="http://www.w3.org/2000/svg">
<g clip-path="url(#clip0_8_300)">
<path d="M86.0552 14.5054C85.5505 11.7018 84.5659 9.14575 83.1995 7.09191C81.8332 5.03808 80.1327 3.55808 78.2675 2.7993C71.4388 0 43.9556 0 43.9556 0C43.9556 0 16.471 0.0847331 9.64228 2.88403C7.77698 3.64286 6.07649 5.12293 4.71013 7.17686C3.34378 9.23079 2.35924 11.7869 1.85455 14.5907C-0.210968 32.828 -1.01222 60.6174 1.91127 78.1252C2.416 80.9288 3.40057 83.4848 4.76692 85.5387C6.13327 87.5925 7.83374 89.0725 9.69899 89.8313C16.5277 92.6306 44.0116 92.6306 44.0116 92.6306C44.0116 92.6306 71.4951 92.6306 78.3235 89.8313C80.1888 89.0726 81.8894 87.5926 83.2558 85.5388C84.6222 83.4849 85.6068 80.9289 86.1116 78.1252C88.2902 59.862 88.9615 32.0896 86.0552 14.5054Z" fill="#FF0000"/>
<path d="M35.2075 66.1643L58.007 46.315L35.2075 26.4657V66.1643Z" fill="white"/>
</g>
<defs>
<clipPath id="clip0_8_300">
<rect width="88" height="93" fill="white"/>
</clipPath>
</defs>
</svg>
